<?xml version="1.0" encoding="utf-8"?>
<!-- Uploaded to: SVG Repo, www.svgrepo.com, Generator: SVG Repo Mixer Tools -->
<svg width="800px" height="800px" viewBox="0 0 1024 1024" class="icon"  version="1.1" xmlns="http://www.w3.org/2000/svg"><path d="M603.2 735.2zM419.2 735.2z" fill="#E8E8E8" /><path d="M32 664.8h960v52.8H32z" fill="#F2385A" /><path d="M115.2 69.6h795.2v564.8H115.2z" fill="#FFFFFF" /><path d="M337.6 749.6l-67.2 203.2h60.8l67.2-203.2zM684.8 749.6H624l67.2 203.2H752z" fill="#E8E8E8" /><path d="M1024 632.8h-83.2V37.6H83.2v596.8H0v116.8h304l-78.4 235.2h128l46.4-139.2h222.4l46.4 139.2h128l-78.4-235.2H1024v-118.4zM115.2 69.6h795.2v564.8H115.2V69.6z m216 883.2h-60.8l67.2-203.2h60.8l-67.2 203.2z m80-139.2l20.8-64h160l20.8 64H411.2z m212.8-64h60.8L752 952.8h-60.8L624 749.6z m368-32H32v-52.8h960v52.8z" fill="" /><path d="M177.6 133.6h667.2v436.8H177.6z" fill="#9DE8F7" /><path d="M320 407.2h-24v-92.8c-9.6 8-19.2 14.4-32 19.2v-22.4c6.4-1.6 12.8-6.4 20.8-11.2s12.8-12.8 16-20.8h19.2v128zM388.8 389.6V356h-33.6v-22.4h33.6V300h22.4v33.6h33.6V356h-33.6v33.6h-22.4zM544 383.232V407.2h-86.4c1.6-8 3.2-16 8-24s14.4-17.6 27.2-30.4c11.2-9.6 17.6-17.6 20.8-20.8 3.2-4.8 4.8-9.6 4.8-14.4s-1.6-9.6-4.8-12.8c-3.2-3.2-6.4-4.8-12.8-4.8-4.8 0-9.6 1.6-12.8 4.8-3.2 3.2-4.8 8-4.8 16l-24-3.2c1.6-12.8 6.4-24 14.4-28.8 8-6.4 17.6-9.6 28.8-9.6 12.8 0 22.4 3.2 30.4 9.6s11.2 16 11.2 25.6c0 6.4-1.6 11.2-3.2 16-1.6 4.8-4.8 11.2-9.6 16-3.2 3.2-8 9.6-16 16s-12.8 11.2-14.4 14.4c-1.6 1.6-3.2 4.8-4.8 6.4l48 0.032zM560 336.8v-22.4h89.6v22.4H560z m0 38.4v-22.4h89.6v22.4H560zM664 373.6l24-3.2c0 6.4 3.2 11.2 6.4 14.4 3.2 3.2 8 4.8 12.8 4.8s9.6-1.6 12.8-6.4c3.2-3.2 4.8-9.6 4.8-16s-1.6-11.2-4.8-14.4c-3.2-3.2-8-4.8-12.8-4.8-3.2 0-6.4 0-11.2 1.6l3.2-20.8c6.4 0 11.2-1.6 16-4.8s4.8-6.4 4.8-12.8c0-4.8-1.6-8-3.2-9.6-3.2-3.2-6.4-3.2-9.6-3.2-4.8 0-8 1.6-11.2 4.8-3.2 3.2-4.8 6.4-4.8 12.8l-22.4-3.2c1.6-8 3.2-14.4 6.4-19.2 3.2-4.8 8-8 12.8-11.2 6.4-3.2 12.8-3.2 19.2-3.2 12.8 0 22.4 3.2 28.8 11.2 6.4 6.4 9.6 12.8 9.6 20.8 0 11.2-6.4 20.8-19.2 27.2 8 1.6 12.8 4.8 17.6 11.2 4.8 4.8 6.4 12.8 6.4 19.2 0 11.2-4.8 20.8-12.8 28.8s-19.2 11.2-30.4 11.2-20.8-3.2-28.8-9.6c-9.6-6.4-12.8-14.4-14.4-25.6z" fill="" /></svg>